<svg width="15" height="17" viewBox="0 0 15 17" fill="none" xmlns="http://www.w3.org/2000/svg">
<path d="M8.95979 15.349C8.22799 16.2731 6.82625 16.2748 6.09247 15.3522L0.98489 8.93092C0.216854 7.9657 0.89665 6.53955 2.1298 6.52748L3.51749 6.51367L3.51872 1.84901C3.51877 1.60859 3.5662 1.37054 3.65829 1.14845C3.75038 0.926366 3.88532 0.724602 4.05542 0.554689C4.22551 0.384777 4.42742 0.250048 4.64961 0.158197C4.87179 0.0663474 5.1099 0.0191778 5.35032 0.0193844L9.70861 0.0233276C10.1936 0.0238905 10.6585 0.216924 11.0012 0.560027C11.3439 0.90313 11.5365 1.36824 11.5365 1.8532L11.537 6.51269L12.8924 6.51343C14.131 6.51417 14.8219 7.94351 14.0536 8.9144L8.95979 15.349ZM6.77474 14.81C6.86462 14.923 6.97888 15.0143 7.10898 15.0769C7.23908 15.1396 7.38166 15.172 7.52606 15.1719C7.67046 15.1717 7.81296 15.1389 7.94291 15.076C8.07287 15.013 8.18692 14.9215 8.27655 14.8083L13.3703 8.37362C13.6866 7.97358 13.4024 7.38523 12.8922 7.38474L11.101 7.384C11.0437 7.38401 10.9871 7.37274 10.9342 7.35084C10.8813 7.32895 10.8333 7.29685 10.7928 7.25638C10.7524 7.21591 10.7203 7.16787 10.6984 7.115C10.6765 7.06212 10.6652 7.00545 10.6652 6.94822L10.6654 1.8532C10.6654 1.59915 10.5645 1.35551 10.3849 1.17582C10.2053 0.996133 9.96167 0.895087 9.70762 0.894885L5.34934 0.890942C5.22341 0.890848 5.09871 0.915564 4.98234 0.963678C4.86598 1.01179 4.76023 1.08236 4.67114 1.17136C4.58206 1.26035 4.51138 1.36602 4.46314 1.48234C4.41491 1.59866 4.39007 1.72334 4.39003 1.84926L4.3888 6.94526C4.38882 7.06008 4.34352 7.17026 4.26275 7.25186C4.18198 7.33346 4.07226 7.37989 3.95745 7.38104L2.13842 7.39879C1.63067 7.40372 1.35091 7.99108 1.6669 8.38841L6.77474 14.81Z" fill="#6F6F6F"/>
</svg>
