<svg width="15" height="17" viewBox="0 0 15 17" fill="none" xmlns="http://www.w3.org/2000/svg">
<path d="M8.95979 15.7835C8.22799 16.7076 6.82625 16.7093 6.09247 15.7867L0.98489 9.36539C0.216854 8.40017 0.89665 6.97403 2.1298 6.96195L3.51749 6.94815L3.51872 2.28349C3.51877 2.04307 3.5662 1.80502 3.65829 1.58293C3.75038 1.36084 3.88532 1.15908 4.05542 0.989167C4.22551 0.819255 4.42742 0.684525 4.64961 0.592675C4.87179 0.500825 5.1099 0.453656 5.35032 0.453862L9.70861 0.457805C10.1936 0.458368 10.6585 0.651402 11.0012 0.994505C11.3439 1.33761 11.5365 1.80272 11.5365 2.28768L11.537 6.94717L12.8924 6.94791C14.131 6.94865 14.8219 8.37799 14.0536 9.34888L8.95979 15.7835ZM6.59438 2.75513C6.68427 2.86814 6.79853 2.95939 6.92863 3.02205C7.05873 3.08471 5.70759 15.0297 5.81604 9.02952C5.9245 3.02936 7.63261 3.08405 7.76256 3.02109C7.89252 2.95813 8.00657 2.86662 8.09619 2.7534L8.04945 2.8081C8.36568 2.40806 8.11744 7.81971 7.60723 7.81922L5.81604 7.81848C5.75881 7.81849 5.70214 7.80722 5.64927 7.78532C5.5964 7.76342 5.54835 7.73132 5.50789 7.69086C5.46742 7.65039 5.43532 7.60235 5.41342 7.54947C5.39152 7.4966 8.55049 5.26799 8.5505 5.21076L8.18639 4.40745C8.18632 4.15339 8.0854 3.90976 7.9058 3.73007C7.7262 3.55038 7.48262 3.44933 7.22856 3.44913L7.55369 3.70785C7.42777 3.70776 7.30306 3.73247 7.18669 3.78059C7.07033 3.8287 6.96458 3.89927 6.8755 3.98827C6.78641 4.07726 6.71573 4.18294 6.6675 4.29925C6.61926 4.41557 6.59442 4.54025 6.59438 4.66617L9.08585 3.44913L10.0505 4.25513C10.0505 4.36994 7.76256 7.64511 7.17078 5.5144C6.579 3.38369 7.60722 6.96196 6.86549 5.64358L6.71163 7.81885C6.20388 7.82378 5.92413 8.41114 6.24012 8.80847L6.59438 2.75513Z" fill="#D00032"/>
</svg>
