<svg width="15" height="17" viewBox="0 0 15 17" fill="none" xmlns="http://www.w3.org/2000/svg">
<path d="M6.0907 0.971605C6.8225 0.0475462 8.22424 0.0458196 8.95802 0.968399L14.0656 7.38973C14.8336 8.35495 14.1538 9.78109 12.9207 9.79317L11.533 9.80697L11.5318 14.4716C11.5317 14.7121 11.4843 14.9501 11.3922 15.1722C11.3001 15.3943 11.1652 15.596 10.9951 15.766C10.825 15.9359 10.6231 16.0706 10.4009 16.1625C10.1787 16.2543 9.94059 16.3015 9.70017 16.3013L5.34189 16.2973C4.85693 16.2968 4.39202 16.1037 4.04929 15.7606C3.70655 15.4175 3.51402 14.9524 3.51398 14.4674L3.51349 9.80796L2.15809 9.80722C0.919519 9.80648 0.228632 8.37714 0.996914 7.40625L6.0907 0.971605ZM8.45611 14C8.36622 13.887 8.25196 13.7957 8.12186 13.7331C7.99176 13.6704 9.3429 1.72543 9.23445 7.7256C9.12599 13.7258 7.41788 13.6711 7.28793 13.734C7.15798 13.797 7.04393 13.8885 6.9543 14.0017L7.00104 13.947C6.68481 14.3471 6.93305 8.93542 7.44327 8.93591L9.23445 8.93665C9.29168 8.93664 9.34835 8.94791 9.40122 8.9698C9.4541 8.9917 9.50214 9.0238 9.54261 9.06427C9.58307 9.10474 9.61517 9.15278 9.63707 9.20565C9.65897 9.25853 6.5 11.4871 6.49999 11.5444L6.8641 12.3477C6.86417 12.6017 6.96509 12.8454 7.14469 13.0251C7.32429 13.2047 7.56787 13.3058 7.82193 13.306L7.4968 13.0473C7.62272 13.0474 7.74743 13.0227 7.8638 12.9745C7.98016 12.9264 8.08591 12.8559 8.175 12.7669C8.26408 12.6779 8.33476 12.5722 8.383 12.4559C8.43123 12.3396 8.45607 12.2149 8.45611 12.089L5.96464 13.306L5 12.5C4.99998 12.3852 7.28793 9.11001 7.87971 11.2407C8.47149 13.3714 7.44327 9.79317 8.18501 11.1115L8.33886 8.93628C8.84661 8.93135 9.12636 8.34398 8.81037 7.94666L8.45611 14Z" fill="#00AF27"/>
</svg>
